<?xml version="1.0" encoding="UTF-8"?>
<svg width="38px" height="35px" viewBox="0 0 38 35" version="1.1" xmlns="http://www.w3.org/2000/svg" xmlns:xlink="http://www.w3.org/1999/xlink">
    <!-- Generator: Sketch 58 (84663) - https://sketch.com -->
    <title>timer copy</title>
    <desc>Created with Sketch.</desc>
    <g id="Page-1---desktop" stroke="none" stroke-width="1" fill="none" fill-rule="evenodd">
        <g id="iconix-case1.1" transform="translate(-881.000000, -4390.000000)">
            <g id="Group-13" transform="translate(850.000000, 4357.000000)">
                <g id="icons-/-adaptive" transform="translate(25.000000, 25.000000)">
                    <g id="responsive" transform="translate(6.000000, 8.000000)">
                        <path d="M29.0195312,6 L26.0507812,6 L26.0507813,5.94243268 C26.0507813,4.30420145 24.7189026,2.97121634 23.0820313,2.97121634 L5.9375,2.97121634 C4.30062863,2.97121634 2.96875,4.30420145 2.96875,5.94243268 L2.96875,17.045399 C2.96875,18.6839204 4.30062863,20.0166154 5.9375,20.0166154 L16,20.0166154 L16,28.940128 L9.49989228,29.0062077 C9.4939719,29.0062077 9.48805114,29.0062077 9.48213033,29.0062077 C8.66357235,29.0062077 8,28.3420841 8,27.5228461 C8,26.6937308 8.67157288,26.0216 9.5,26.0216 L13,26.0216 L13,23.0191077 L5.9375,22.9616412 C2.66346743,22.9616412 0,20.295961 0,17.0192085 L0,5.94243268 C0,2.66568015 2.66346743,0 5.9375,0 L23.0820312,0 C26.3560638,0 29.0195312,2.66568015 29.0195312,5.94243268 L29.0195312,6 L29.0195312,6 Z" id="Shape" fill="#000000" fill-rule="nonzero"></path>
                        <path d="M29.0195312,9 L29.0195312,9.00820994 L32.0625,9.00820994 C35.3365326,9.00820994 38,11.6738901 38,14.9506426 L38,21.2441968 C38,22.0647632 37.3355103,22.729805 36.515625,22.729805 C35.6957397,22.729805 35.03125,22.0647632 35.03125,21.2441968 L35.03125,14.9506426 C35.03125,13.3124114 33.6993714,11.9794263 32.0625,11.9794263 L24.9375,11.9794263 C23.3006286,11.9794263 21.96875,13.3124114 21.96875,14.9506426 L21.96875,28.6722377 C21.96875,30.3104689 23.3006286,32.0287837 24.9375,32.0287837 L32.0625,32.0287837 C33.6993714,32.0287837 35.03125,30.3104689 35.03125,28.6722377 C35.03125,27.8516713 35.6957397,27.1866295 36.515625,27.1866295 C37.3355103,27.1866295 38,27.8516713 38,28.6722377 C38,31.9489902 35.3365326,35 32.0625,35 L24.9375,35 C21.7411652,35 19.1281433,32.0734679 19.0057983,28.9040738 L19.0057983,18.0149538 L19,18.0149538 L19,14.9506426 C19,11.6738901 21.6634674,9.00820994 24.9375,9.00820994 L26.0507812,9.00820994 L26.0507812,9 L29.0195312,9 Z M30.2278481,27 C31.2066851,27 32,27.6714844 32,28.5 C32,29.3285156 31.2066851,30 30.2278481,30 L26.7721519,30 C25.7933149,30 25,29.3285156 25,28.5 C25,27.6714844 25.7933149,27 26.7721519,27 L30.2278481,27 Z" id="Combined-Shape" fill="#93B911" fill-rule="nonzero"></path>
                    </g>
                </g>
            </g>
        </g>
    </g>
</svg>