<?xml version="1.0" encoding="UTF-8"?>
<svg width="40px" height="25px" viewBox="0 0 40 25" version="1.1" xmlns="http://www.w3.org/2000/svg" xmlns:xlink="http://www.w3.org/1999/xlink">
    <!-- Generator: Sketch 58 (84663) - https://sketch.com -->
    <title>arrow</title>
    <desc>Created with Sketch.</desc>
    <g id="Page-1---desktop" stroke="none" stroke-width="1" fill="none" fill-rule="evenodd">
        <g id="iconix-case1.1" transform="translate(-1335.000000, -3696.000000)" fill="#000000" fill-rule="nonzero">
            <g id="icons-/-arrow-right" transform="translate(1330.000000, 3684.000000)">
                <path d="M34.550609,36.5699214 C33.9671086,37.1433595 33.0211258,37.1433595 32.4376253,36.5699214 C31.8541249,35.9964834 31.8541249,35.0668139 32.4376253,34.4933758 L41.5762797,25.512316 C42.1588293,24.9398124 42.1588293,24.008274 41.5762797,23.4357704 L32.4904499,14.5066242 C31.9069495,13.9331861 31.9069495,13.0035166 32.4904499,12.4300786 C33.0739504,11.8566405 34.0199332,11.8566405 34.6034336,12.4300786 L43.6892634,21.3592247 C45.4369122,23.0767356 45.4369122,25.8713507 43.6892634,27.5888616 L34.550609,36.5699214 Z M6.48446573,25.968774 C6.0745399,25.9687215 5.70344971,25.8025155 5.4348541,25.5339199 C5.16625848,25.2653243 5,24.8942341 5,24.4844132 C5,23.6646666 5.66461408,23.0000525 6.48441325,23 L36.238034,23 C37.0578331,22.9999475 37.7224472,23.6645616 37.7224472,24.4844132 C37.7224472,25.3041599 37.0578856,25.9687215 36.2380864,25.968774 L6.48446573,25.968774 Z" id="Shape"></path>
            </g>
        </g>
    </g>
</svg>