<?xml version="1.0" encoding="UTF-8"?>
<svg width="37px" height="38px" viewBox="0 0 37 38" version="1.1" xmlns="http://www.w3.org/2000/svg" xmlns:xlink="http://www.w3.org/1999/xlink">
    <!-- Generator: Sketch 58 (84663) - https://sketch.com -->
    <title>buffet</title>
    <desc>Created with Sketch.</desc>
    <g id="Page-1---desktop" stroke="none" stroke-width="1" fill="none" fill-rule="evenodd">
        <g id="iconix-vacancies1" transform="translate(-163.000000, -1557.000000)">
            <g id="Group-13" transform="translate(130.000000, 1311.000000)">
                <g id="Group-7" transform="translate(0.000000, 216.000000)">
                    <g id="icons-/-buffet" transform="translate(25.000000, 25.000000)">
                        <rect id="Rectangle-5-Copy-4" x="0" y="0" width="50" height="50"></rect>
                        <path d="M25.4444444,5.92585185 C26.3035778,5.92585185 27,6.59740185 27,7.42585185 C27,9.74777685 25.4380667,11.0895269 24.2974556,12.0691019 C23.7142,12.5701019 23.1111111,13.0881269 23.1111111,13.4258519 C23.1111111,14.2543019 22.4146889,14.9258519 21.5555556,14.9258519 C20.6964222,14.9258519 20,14.2543019 20,13.4258519 C20,11.7428519 21.2354222,10.6816769 22.2281778,9.82900185 C23.2578,8.94452685 23.8888889,8.35532685 23.8888889,7.42585185 C23.8888889,6.59740185 24.5853111,5.92585185 25.4444444,5.92585185 Z M31.6666667,5.92585185 C32.4030667,5.92585185 33,6.59740185 33,7.42585185 C33,9.74777685 31.6612,11.0895269 30.6835333,12.0691019 C30.1836,12.5701019 29.6666667,13.0881269 29.6666667,13.4258519 C29.6666667,14.2543019 29.0697333,14.9258519 28.3333333,14.9258519 C27.5969333,14.9258519 27,14.2543019 27,13.4258519 C27,11.7428519 28.0589333,10.6816769 28.9098667,9.82900185 C29.7924,8.94452685 30.3333333,8.35532685 30.3333333,7.42585185 C30.3333333,6.59740185 30.9302667,5.92585185 31.6666667,5.92585185 Z M18.6666667,5.92585185 C19.4030667,5.92585185 20,6.59740185 20,7.42585185 C20,9.74777685 18.6611333,11.0895269 17.6835333,12.0691019 C17.1836,12.5701019 16.6666667,13.0881269 16.6666667,13.4258519 C16.6666667,14.2543019 16.0697333,14.9258519 15.3333333,14.9258519 C14.5969333,14.9258519 14,14.2543019 14,13.4258519 C14,11.7428519 15.0589333,10.6816769 15.9098667,9.82900185 C16.7924,8.94452685 17.3333333,8.35532685 17.3333333,7.42585185 C17.3333333,6.59740185 17.9302667,5.92585185 18.6666667,5.92585185 Z" id="Combined-Shape" fill="#93B911" fill-rule="nonzero"></path>
                        <path d="M44.5834778,22.6841042 C44.3119035,22.4136489 43.9413974,22.2613757 43.5547039,22.2613757 L38.7327056,22.2613757 L39.3102527,19.731397 C39.406366,19.3105151 39.3025926,18.8695337 39.0283444,18.532743 C38.7540239,18.1960233 38.33893,18 37.8999884,18 L9.44538543,18 C9.00572117,18 8.58990457,18.1967335 8.3156564,18.5345186 C8.04140822,18.8723036 7.93850192,19.3142793 8.03606056,19.7356583 L11.1436284,33.1565771 C11.7791326,35.9010452 13.3485982,38.3826573 15.5680211,40.1590828 L9.44531317,40.1590828 C8.6470667,40.1590828 8,40.7950221 8,41.5795414 C8,42.3640607 8.6470667,43 9.44531317,43 L37.9179825,43 C38.716229,43 39.3632957,42.3640607 39.3632957,41.5795414 C39.3632957,40.7950221 38.716229,40.1590828 37.9179825,40.1590828 L31.8240364,40.1590828 C32.151183,39.896369 32.4672007,39.6165387 32.7707165,39.320018 C33.3369179,38.7670334 33.3397363,37.8676701 32.7770036,37.3112054 C32.2143432,36.7548118 31.2991709,36.7520419 30.7330417,37.3050264 C28.848787,39.1455856 26.3491178,40.1591539 23.6945111,40.1591539 C19.0048312,40.1591539 15.0027591,37.0204376 13.9622059,32.5263197 L11.2565074,20.8409172 L36.0945032,20.8409172 L33.4335371,32.4972713 C33.4328145,32.5002543 33.4325977,32.5032372 33.4319473,32.5062202 C33.4258047,32.5342032 33.421541,32.5627544 33.4170606,32.5913767 C33.4138809,32.6115472 33.4099785,32.6317887 33.407666,32.6519592 C33.405498,32.6715616 33.4048477,32.691519 33.4034746,32.7113344 C33.4013789,32.7408089 33.3991387,32.7702124 33.3989219,32.7994739 C33.3989219,32.8023858 33.3984883,32.8052267 33.3984883,32.8082097 C33.3984883,32.8204966 33.4000781,32.8324285 33.4003672,32.8446444 C33.4012344,32.877386 33.4023184,32.9100566 33.4054258,32.942443 C33.4070879,32.9598436 33.4099785,32.9768891 33.412291,32.9940767 C33.4161211,33.0226989 33.4198789,33.0512501 33.4255156,33.0794462 C33.429707,33.1008242 33.4352715,33.1216339 33.4404024,33.1425856 C33.4461836,33.1657391 33.4516035,33.1890346 33.458541,33.211833 C33.4657676,33.2359098 33.4743672,33.2593473 33.4828946,33.2828559 C33.4898321,33.3020321 33.4964805,33.3212793 33.5042129,33.3401004 C33.5143301,33.3647454 33.5258204,33.3886801 33.5373106,33.4126858 C33.5455489,33.4299444 33.5535704,33.447274 33.5625313,33.4641775 C33.5748887,33.4873309 33.5883302,33.5097742 33.6019161,33.5322174 C33.6122501,33.5492629 33.622295,33.5664505 33.6333517,33.5830698 C33.6468653,33.6034534 33.6613907,33.6230557 33.6759884,33.6427291 C33.6890685,33.6604138 33.702004,33.6781695 33.7159513,33.6952861 C33.7298986,33.7124026 33.744713,33.7287379 33.7594552,33.7452152 C33.7757873,33.7635391 33.7920471,33.781721 33.8093185,33.7991926 C33.8234826,33.8133972 33.8382971,33.8268205 33.852967,33.8404569 C33.8722619,33.8584257 33.8916291,33.8762525 33.9119358,33.8931559 C33.9267502,33.9054429 33.9422874,33.9169486 33.9576077,33.9286674 C33.9788538,33.9449317 34.0000999,33.9611249 34.0223577,33.9762528 C34.0393401,33.9878295 34.056973,33.9983409 34.0744612,34.0092074 C34.0959964,34.0225597 34.1174593,34.035912 34.1397894,34.048199 C34.1608187,34.0597757 34.1826429,34.0700741 34.2043949,34.0806565 C34.2241957,34.0902446 34.2436352,34.1001168 34.2639418,34.1088526 C34.2906801,34.1203583 34.3182133,34.1303015 34.3457465,34.1402447 C34.3623676,34.1462106 34.3786274,34.1527448 34.3956098,34.1581425 C34.4270454,34.1682278 34.4592036,34.1763954 34.4915064,34.18435 C34.503647,34.1873329 34.5151372,34.1914522 34.5274224,34.1941511 C34.5303853,34.1947903 34.5332759,34.1950034 34.5362388,34.1956426 C34.5649283,34.2017506 34.5941959,34.2060119 34.6235357,34.2104154 C34.6439869,34.2135404 34.6644381,34.2173756 34.6848893,34.2196484 C34.7045455,34.221708 34.7245631,34.2223472 34.7444362,34.2236967 C34.7747877,34.2257563 34.8051393,34.227958 34.8352741,34.2281711 C34.8381647,34.2281711 34.8409108,34.2285972 34.8438014,34.2285972 C37.082447,34.2285972 39.5847177,33.1879693 41.5371912,31.4448535 C43.7645634,29.4564246 44.9923569,26.8292864 44.9952475,24.0466081 L45,23.7007264 C45.0050034,23.3207538 44.8550522,22.9546306 44.5834778,22.6841042 Z M37,31 L38.281405,25 L42,25 C41.5383008,28.0087549 39.1971529,30.1866523 37,31 Z" id="Shape" fill="#000000" fill-rule="nonzero"></path>
                    </g>
                </g>
            </g>
        </g>
    </g>
</svg>