<?xml version="1.0" encoding="UTF-8"?>
<svg width="12px" height="9px" viewBox="0 0 12 9" version="1.1" xmlns="http://www.w3.org/2000/svg" xmlns:xlink="http://www.w3.org/1999/xlink">
    <!-- Generator: Sketch 58 (84663) - https://sketch.com -->
    <title>checkbox</title>
    <desc>Created with Sketch.</desc>
    <g id="Symbols" stroke="none" stroke-width="1" fill="none" fill-rule="evenodd">
        <g id="checkbox-/-checked" transform="translate(-6.000000, -8.000000)" fill="#FFFFFF">
            <path d="M10.078125,16.765625 L6.1640625,12.875 C6.05468695,12.7656245 6,12.6250009 6,12.453125 C6,12.2812491 6.05468695,12.1406255 6.1640625,12.03125 L7.03125,11.1875 C7.14062555,11.0624994 7.27734293,11 7.44140625,11 C7.60546957,11 7.74999938,11.0624994 7.875,11.1875 L10.5,13.8125 L16.125,8.1875 C16.2500006,8.06249938 16.3945304,8 16.5585938,8 C16.7226571,8 16.8593745,8.06249938 16.96875,8.1875 L17.8359375,9.03125 C17.945313,9.14062555 18,9.28124914 18,9.453125 C18,9.62500086 17.945313,9.76562445 17.8359375,9.875 L10.921875,16.765625 C10.8124995,16.8906256 10.6718759,16.953125 10.5,16.953125 C10.3281241,16.953125 10.1875005,16.8906256 10.078125,16.765625 Z" id="checkbox"></path>
        </g>
    </g>
</svg>