<?xml version="1.0" encoding="UTF-8"?>
<svg width="39px" height="38px" viewBox="0 0 39 38" version="1.1" xmlns="http://www.w3.org/2000/svg" xmlns:xlink="http://www.w3.org/1999/xlink">
    <!-- Generator: Sketch 58 (84663) - https://sketch.com -->
    <title>cozy</title>
    <desc>Created with Sketch.</desc>
    <g id="Page-1---desktop" stroke="none" stroke-width="1" fill="none" fill-rule="evenodd">
        <g id="iconix-vacancies1" transform="translate(-721.000000, -1558.000000)">
            <g id="Group-13" transform="translate(130.000000, 1311.000000)">
                <g id="Group-8" transform="translate(560.000000, 216.000000)">
                    <g id="icons-/-cozy" transform="translate(25.000000, 25.000000)">
                        <rect id="Rectangle-5-Copy-4" x="0" y="0" width="50" height="50"></rect>
                        <path d="M26.0743305,6 C29.0626918,6 32.6637324,6.43937757 35.1584619,6.80802427 C38.2447924,7.26395272 40.4624617,10.0574144 40.2069993,13.1675693 C40.2067024,13.171503 40.2063313,13.1752881 40.2059602,13.1791475 L39.4296275,21.802452 C39.7868445,21.7098264 40.1611318,21.6600996 40.5469231,21.6600996 C43.0023906,21.6600996 45,23.6577832 45,26.1131764 C45,32.3364551 41.0725434,36.4072289 39.2817087,37.9397809 L40.4882158,42.1021412 C40.7164397,42.8895326 40.263109,43.712846 39.4757176,43.94107 C39.3376699,43.9810741 39.1986574,44.0001484 39.0617972,44.0001484 C38.41802,44.0001484 37.8250087,43.5779897 37.6367889,42.9286461 L36.5045573,39 L14.4954427,39 L13.3632111,42.9286461 C13.1749913,43.5779897 12.58198,44.0001484 11.9382028,44.0001484 C11.8013426,44.0001484 11.6623301,43.9810741 11.5242824,43.94107 C10.736891,43.712846 10.2835603,42.8895326 10.5117842,42.1021412 L11.7182913,37.9397809 C9.92745661,36.4072289 6,32.3364551 6,26.1131764 C6,23.6577832 7.99760936,21.6600996 10.4530769,21.6600996 C10.8388682,21.6600996 11.2131555,21.7098264 11.5703725,21.802452 L10.7940398,13.1791475 C10.7936687,13.1752881 10.7932976,13.171503 10.7930007,13.1675693 C10.5375383,10.0574144 12.7552076,7.26395272 15.8415381,6.80802427 C18.3362676,6.43937757 21.9373082,6 24.9256695,6 C25.1146323,6 25.3062238,6.00175642 25.5,6.00514099 C25.6937762,6.00175642 25.8853677,6 26.0743305,6 Z M25,8.9687674 L24.9256695,8.9687674 L24.9256695,8.9687674 C22.1176608,8.9687674 18.6718125,9.3908519 16.2754977,9.74480319 C14.7342621,9.97243343 13.6263923,11.3664182 13.7513032,12.9195288 L15.0105801,26.9080639 C15.0110255,26.9124428 15.0107286,26.9167476 15.0110997,26.9211265 C15.0143653,26.9610564 15.0165919,27.0010606 15.0165919,27.0411389 C15.0165919,27.1563271 15.0749282,27.228765 15.1238386,27.2692145 C15.1731944,27.3101092 15.2560972,27.3541212 15.3706174,27.3324492 C15.9819243,27.2160341 16.5800354,27.1090218 17.1645561,27.0114561 L17.932962,29.8933575 C17.2830346,29.9992333 16.6138664,30.1176935 15.9260738,30.2486694 C14.9659744,30.4313971 13.9838319,30.179126 13.2312494,29.5562787 C12.5052373,28.9556228 12.0781059,28.0802817 12.0494573,27.142077 L11.9478513,26.2885564 C11.9409489,26.2302943 11.9374606,26.1717354 11.9374606,26.1131022 C11.9374606,25.2946131 11.271566,24.6287185 10.4530769,24.6287185 C9.6345877,24.6287185 8.96869318,25.2946131 8.96869318,26.1131022 C8.96869318,28.7311098 9.84344049,31.2059485 11.5685912,33.4688914 C12.494624,34.6835626 13.4348326,35.5149659 14,36 L37,36 C37.5651674,35.5149659 38.505376,34.6835626 39.4314088,33.4688914 C41.1565595,31.2059485 42.0313068,28.7311098 42.0313068,26.1131022 C42.0313068,25.2946131 41.3654123,24.6287185 40.5469231,24.6287185 C39.728434,24.6287185 39.0625394,25.2946131 39.0625394,26.1131022 C39.0625394,26.1717354 39.0590511,26.2302943 39.0521487,26.2885564 L38.9505427,27.142077 C38.9218941,28.0802817 38.4947627,28.9556228 37.7687506,29.5562787 C37.0161681,30.179126 36.0340256,30.4313971 35.0739262,30.2486694 C34.4130226,30.122814 33.7693157,30.0085148 33.1433525,29.9058327 L33.8941737,27.0212831 C34.4600118,27.1161948 35.0385335,27.21993 35.6293826,27.3324492 C35.7439028,27.3541212 35.8268056,27.3101092 35.8761614,27.2692145 C35.9250718,27.228765 35.9834081,27.1563271 35.9834081,27.0411389 C35.9834081,27.0010606 35.9856347,26.9610564 35.9889003,26.9211265 C35.9892714,26.9167476 35.9889745,26.9124428 35.9894199,26.9080639 L37.2486968,12.9195288 C37.3736077,11.3664182 36.2657379,9.97243343 34.7245023,9.74480319 C32.3281875,9.3908519 28.8823392,8.9687674 26.0743305,8.9687674 L26,8.9687674 L26,8.9687674 L26,8.98734382 C25.8317079,8.98179836 25.6649348,8.97742813 25.5,8.97432343 C25.3350652,8.97742813 25.1682921,8.98179836 25,8.98734382 L25,8.9687674 Z" id="Combined-Shape" fill="#000000" fill-rule="nonzero"></path>
                        <path d="M32,22.4291498 C32,20.5352517 30.4282136,19 28.4893438,19 C27.2232977,19 26.1176411,19.6567795 25.4999604,20.6383149 C24.8823589,19.6567795 23.7762274,19 22.5102076,19 C20.5713378,19 19,20.5352517 19,22.4291498 C19,23.4602709 19.4677656,24.3827621 20.2049931,25.0109602 L25.1796034,29.8703915 C25.2645605,29.953378 25.3797804,30 25.4999604,30 C25.6201405,30 25.7353603,29.953378 25.8203175,29.8703915 L30.7949277,25.0109602 C31.5321816,24.3827621 32,23.4602709 32,22.4291498 Z" id="Path" stroke="#93B911" stroke-width="3" fill-rule="nonzero"></path>
                    </g>
                </g>
            </g>
        </g>
    </g>
</svg>