<?xml version="1.0" encoding="UTF-8"?>
<svg width="22px" height="22px" viewBox="0 0 22 22" version="1.1" xmlns="http://www.w3.org/2000/svg" xmlns:xlink="http://www.w3.org/1999/xlink">
    <!-- Generator: Sketch 58 (84663) - https://sketch.com -->
    <title>Combined Shape</title>
    <desc>Created with Sketch.</desc>
    <g id="Symbols" stroke="none" stroke-width="1" fill="none" fill-rule="evenodd">
        <g id="icons-/-social" fill="#D6D6D6" fill-rule="nonzero">
            <path d="M11,0 C17.0751322,0 22,4.92486775 22,11 C22,17.0751322 17.0751322,22 11,22 C4.92486775,22 0,17.0751322 0,11 C0,4.92486775 4.92486775,0 11,0 Z M13.2675714,6.28571429 L11.8957143,6.28571429 C10.2598571,6.28571429 9.56764286,7.11071429 9.56764286,8.4975 L9.56764286,8.4975 L9.56764286,9.36885714 L8.64285714,9.36885714 L8.64285714,11.2168571 L9.56764286,11.2168571 L9.56764286,16.1503571 L11.726,16.1503571 L11.726,11.2168571 L12.9595714,11.2168571 L13.2675714,9.36964286 L11.726,9.36964286 L11.7259285,8.58205543 C11.726199,8.19356476 11.7480524,7.98207143 12.3427857,7.98207143 L12.3427857,7.98207143 L13.2675714,7.98207143 L13.2675714,6.28571429 Z" id="Combined-Shape"></path>
        </g>
    </g>
</svg>