<?xml version="1.0" encoding="UTF-8"?>
<svg width="14px" height="16px" viewBox="0 0 14 16" version="1.1" xmlns="http://www.w3.org/2000/svg" xmlns:xlink="http://www.w3.org/1999/xlink">
    <!-- Generator: Sketch 58 (84663) - https://sketch.com -->
    <title>file</title>
    <desc>Created with Sketch.</desc>
    <g id="Page-1---desktop" stroke="none" stroke-width="1" fill="none" fill-rule="evenodd">
        <g id="iconix-main1" transform="translate(-896.000000, -7338.000000)" fill="#FFFFFF">
            <g id="feedback" transform="translate(0.000000, 6720.000000)">
                <path d="M897.339557,632.565969 C896.756387,631.961655 896.360671,631.242741 896.152396,630.409205 C895.944121,629.575669 895.949328,628.747355 896.168017,627.924239 C896.386705,627.101122 896.798042,626.387417 897.402039,625.783104 L903.931422,619.062754 C904.389627,618.604309 904.925926,618.291738 905.540337,618.12503 C906.154748,617.958323 906.763942,617.958323 907.367939,618.12503 C907.971936,618.291738 908.503029,618.604309 908.961234,619.062754 C909.419439,619.521198 909.726639,620.057779 909.882845,620.672512 C910.039052,621.287245 910.039052,621.901968 909.882845,622.516701 C909.726639,623.131434 909.419439,623.668015 908.961234,624.126459 L903.244119,629.971601 C902.785914,630.450884 902.22358,630.685313 901.557101,630.674893 C900.890621,630.664474 900.333495,630.424836 899.885704,629.955972 C899.437913,629.487108 899.219228,628.92448 899.229641,628.26807 C899.240055,627.611661 899.474361,627.054242 899.932565,626.595797 L904.400038,622.000953 C904.504175,621.9176 904.623932,621.870714 904.75931,621.860295 C904.894689,621.849876 905.014445,621.896761 905.118583,622.000953 L905.837127,622.688617 C905.941265,622.792809 905.993333,622.912628 905.993333,623.048078 C905.993333,623.183527 905.941265,623.303346 905.837127,623.407538 L901.338413,628.002382 C901.275931,628.085736 901.239483,628.184717 901.22907,628.299328 C901.218656,628.413939 901.249897,628.50771 901.322793,628.580645 C901.395689,628.653579 901.478998,628.690046 901.572721,628.690046 C901.666445,628.690046 901.744547,628.64837 901.807029,628.565016 L907.524145,622.751132 C907.836557,622.417717 907.992761,622.032213 907.992761,621.594606 C907.992761,621.157 907.841764,620.781915 907.539765,620.469339 C907.237767,620.156763 906.878498,620.000476 906.461949,620.000476 C906.045399,620.000476 905.680923,620.156763 905.368511,620.469339 L898.807887,627.158431 C898.266372,627.721068 897.995619,628.393096 897.995619,629.174536 C897.995619,629.955976 898.261166,630.622795 898.792266,631.175013 C899.323367,631.72723 899.963803,632.003334 900.713592,632.003334 C901.463381,632.003334 902.09861,631.73244 902.619297,631.190641 L907.992761,625.689331 C908.096898,625.585139 908.216654,625.533044 908.352033,625.533044 C908.487412,625.533044 908.607168,625.585139 908.711305,625.689331 L909.42985,626.376995 C909.533987,626.481187 909.586055,626.601006 909.586055,626.736456 C909.586055,626.871905 909.533987,626.991724 909.42985,627.095916 L904.056386,632.597226 C903.452389,633.222378 902.739059,633.63914 901.916373,633.847524 C901.093688,634.055908 900.276221,634.050698 899.463949,633.831895 C898.651678,633.613092 897.943554,633.191121 897.339557,632.565969 Z" id="file"></path>
            </g>
        </g>
    </g>
</svg>