<?xml version="1.0" encoding="UTF-8"?>
<svg width="38px" height="39px" viewBox="0 0 38 39" version="1.1" xmlns="http://www.w3.org/2000/svg" xmlns:xlink="http://www.w3.org/1999/xlink">
    <!-- Generator: Sketch 58 (84663) - https://sketch.com -->
    <title>growth</title>
    <desc>Created with Sketch.</desc>
    <g id="Page-1---desktop" stroke="none" stroke-width="1" fill="none" fill-rule="evenodd">
        <g id="iconix-vacancies1" transform="translate(-721.000000, -1408.000000)">
            <g id="Group-13" transform="translate(130.000000, 1311.000000)">
                <g id="Group-6" transform="translate(560.000000, 66.000000)">
                    <g id="icons-/-growth" transform="translate(25.000000, 25.000000)">
                        <rect id="Rectangle-5-Copy-4" x="0" y="0" width="50" height="50"></rect>
                        <path d="M40.5000281,24 C39.6716687,24 39.0000562,24.6536496 39.0000562,25.459854 L39,27 L33,27 L33.0001687,25.459854 C33.0001687,24.6535766 32.3286313,24 31.5001969,24 C30.6718374,24 30.000225,24.6536496 30.000225,25.459854 L30,43.540146 C30,44.3464234 30.6715374,45 31.4999719,45 C32.3283313,45 32.9999438,44.3463504 32.9999438,43.540146 L33,42 L39,42 L38.9998313,43.540146 C38.9998313,44.3464234 39.6713687,45 40.4998031,45 C41.3281626,45 41.999775,44.3463504 41.999775,43.540146 L42,25.459854 C42,24.6536496 41.3283876,24 40.5000281,24 Z M39,30 L39,33 L33,33 L33,30 L39,30 Z M33,39 L33.000075,36 L39,36 L38.999925,39 L33,39 Z" id="Shape" fill="#93B911" fill-rule="nonzero"></path>
                        <path d="M41.1569531,20.5953829 C41.0432659,20.357491 40.760879,19.9583278 40.146624,19.9583278 L32.4984095,19.9583278 C30.6998189,19.9583278 29.1245666,18.8247015 28.5784791,17.1373948 L26.2142178,9.78428278 C25.9792193,9.05844974 25.3314785,9.00179093 25.1385615,9.00179093 C24.9456445,9.00179093 24.2979037,9.05844974 24.062083,9.7869844 L21.6995409,17.1346932 C21.1526312,18.8247015 19.5773788,19.9583278 17.7787882,19.9583278 L10.130499,19.9583278 C9.3732567,19.9583278 9.11695585,20.5683668 9.05641235,20.7553784 C8.99504664,20.9449415 8.84316466,21.5988816 9.46519313,22.0526023 L15.6527395,26.5661702 C17.1018221,27.6232509 17.70352,29.4825602 17.149958,31.1928306 L14.7865189,38.4958877 C14.5507729,39.2244975 15.0416238,39.6525528 15.1976915,39.7663958 C15.3536845,39.8801636 15.910909,40.2165894 16.5282285,39.7663958 L22.7157748,35.2528279 C23.4480523,34.7186592 24.3496273,34.4391924 25.2546406,34.4641073 C26.0799757,34.4874462 26.7301083,35.1780833 26.7068626,36.0066526 C26.6836168,36.835222 25.9946915,37.4884117 25.1704777,37.4646975 C24.9175403,37.4572681 24.6771602,37.5324629 24.4731809,37.6812767 L18.2856346,42.1948446 C17.5497693,42.7316399 16.706346,43 15.8629226,43 C15.0194993,43 14.1761506,42.7316399 13.4402854,42.1948446 C11.9686297,41.1213291 11.3809093,39.3053207 11.9430669,37.5682593 L14.306506,30.2652021 C14.4585375,29.7954969 14.2932762,29.2848923 13.8953334,28.9946191 L7.70778705,24.4810512 C6.23306683,23.4052844 5.64624329,21.5787696 6.21288566,19.827825 C6.77743517,18.0835593 8.31516549,16.9565369 10.130499,16.9565369 L17.7787882,16.9565369 C18.2858588,16.9565369 18.7084674,16.663412 18.8552667,16.2097664 L21.2178089,8.86213261 C21.7807888,7.12244467 23.319416,6 25.1385615,6 C26.957707,6 28.4963343,7.12244467 29.0584919,8.859431 L31.4227532,16.212468 C31.5687304,16.663337 31.9911895,16.9565369 32.4983348,16.9565369 L40.146624,16.9565369 C41.7427303,16.9565369 43.1627371,17.8533219 43.8525593,19.2968832 C44.2096913,20.0442541 43.895762,20.940814 43.1514506,21.2993779 C42.4069897,21.6579419 41.5141598,21.3427538 41.1569531,20.5953829 Z" id="Path" fill="#000000" fill-rule="nonzero"></path>
                    </g>
                </g>
            </g>
        </g>
    </g>
</svg>