<?xml version="1.0" encoding="UTF-8"?>
<svg width="22px" height="22px" viewBox="0 0 22 22" version="1.1" xmlns="http://www.w3.org/2000/svg" xmlns:xlink="http://www.w3.org/1999/xlink">
    <!-- Generator: Sketch 58 (84663) - https://sketch.com -->
    <title>Combined Shape</title>
    <desc>Created with Sketch.</desc>
    <g id="Symbols" stroke="none" stroke-width="1" fill="none" fill-rule="evenodd">
        <g id="icons-/-social" transform="translate(-76.000000, 0.000000)" fill="#D6D6D6" fill-rule="nonzero">
            <path d="M87,0 C93.0751322,0 98,4.92486775 98,11 C98,17.0751322 93.0751322,22 87,22 C80.9248678,22 76,17.0751322 76,11 C76,4.92486775 80.9248678,0 87,0 Z M89.8164647,4.71428571 L84.1835353,4.71428571 L83.9934606,4.71942881 C82.1684323,4.8184325 80.7142857,6.33430987 80.7142857,8.1836282 L80.7142857,8.1836282 L80.7142857,13.8164647 L80.7194285,14.0065394 C80.8184264,15.8315677 82.3342169,17.2857143 84.1835353,17.2857143 L84.1835353,17.2857143 L89.8164647,17.2857143 L90.0065394,17.2805703 C91.8315677,17.1815496 93.2857143,15.6654237 93.2857143,13.8164647 L93.2857143,13.8164647 L93.2857143,8.1836282 L93.2805715,7.99355328 C93.1815736,6.16851914 91.6657831,4.71428571 89.8164647,4.71428571 L89.8164647,4.71428571 Z M89.4644067,6.47597043 C90.6001922,6.47597043 91.5240296,7.39988909 91.5240296,8.53567468 L91.5240296,8.53567468 L91.5240296,13.4644067 L91.5183702,13.6179059 C91.4396065,14.6822687 90.5485656,15.5240296 89.4644067,15.5240296 L89.4644067,15.5240296 L84.5355933,15.5240296 L84.3820941,15.5183702 C83.3177313,15.4396065 82.4759704,14.5485656 82.4759704,13.4644067 L82.4759704,13.4644067 L82.4759704,8.53567468 L82.4816298,8.38217492 C82.5603935,7.31780541 83.4514344,6.47597043 84.5355933,6.47597043 L84.5355933,6.47597043 Z M87,8.16586322 C85.436902,8.16586322 84.1654566,9.43730869 84.1654566,11 C84.1654566,12.563098 85.436902,13.8345434 87,13.8345434 C88.5627726,13.8345434 89.8345434,12.563098 89.8345434,11 C89.8345434,9.43730869 88.5627726,8.16586322 87,8.16586322 Z M87,9.14150832 C88.0249316,9.14150832 88.858573,9.97547505 88.858573,11 C88.858573,12.0249316 88.0246063,12.8582477 87,12.8582477 C85.9753937,12.8582477 85.141427,12.0249316 85.141427,11 C85.141427,9.97547505 85.9750684,9.14150832 87,9.14150832 Z M89.9533678,7.3382403 C89.7652495,7.3382403 89.5806285,7.41420333 89.4478965,7.54758595 C89.3141072,7.68039926 89.2375749,7.86526433 89.2375749,8.05403327 C89.2375749,8.24207024 89.3144325,8.42669131 89.4478965,8.56007394 C89.5803845,8.69288725 89.7652495,8.76950092 89.9533678,8.76950092 C90.1420555,8.76950092 90.3260259,8.69288725 90.4594085,8.56007394 C90.5928725,8.42669131 90.6690795,8.24174492 90.6690795,8.05403327 C90.6690795,7.86526433 90.5928725,7.68039926 90.4594085,7.54758595 C90.3265952,7.41420333 90.1420555,7.3382403 89.9533678,7.3382403 Z" id="Combined-Shape"></path>
        </g>
    </g>
</svg>