<?xml version="1.0" encoding="UTF-8"?>
<svg width="38px" height="38px" viewBox="0 0 38 38" version="1.1" xmlns="http://www.w3.org/2000/svg" xmlns:xlink="http://www.w3.org/1999/xlink">
    <!-- Generator: Sketch 58 (84663) - https://sketch.com -->
    <title>timer copy 2</title>
    <desc>Created with Sketch.</desc>
    <g id="Page-1---desktop" stroke="none" stroke-width="1" fill="none" fill-rule="evenodd">
        <g id="iconix-case1.1" transform="translate(-881.000000, -4688.000000)">
            <g id="Group-13" transform="translate(850.000000, 4357.000000)">
                <g id="icons-/-integration" transform="translate(25.000000, 325.000000)">
                    <g id="integration" transform="translate(6.000000, 6.000000)">
                        <path d="M32.3474884,35.4658356 C32.3451691,35.467865 32.3431396,35.4701843 32.3411102,35.4725036 L30.4128724,37.5306244 C30.120636,37.8425751 29.7251892,38.0002899 29.3291626,38.0002899 C28.9653168,38.0002899 28.6008911,37.8672181 28.3144531,37.5990448 C27.7163544,37.0383454 27.6856232,36.0990143 28.2463226,35.5006256 L30.1716614,33.445694 C32.7791748,30.6265412 34.4111175,27.1226044 34.8906403,23.3125153 C34.992981,22.4992981 35.7351685,21.9226532 36.5486755,22.0249939 C37.3621826,22.1273346 37.9385376,22.869812 37.8361969,23.6830292 C37.2786865,28.1138306 35.3806,32.188034 32.3474884,35.4658356 Z M32.0723571,8.21247866 C32.0723571,8.19769287 32.0720672,8.18290709 32.0717773,8.16812138 C32.0601807,7.7761536 32.1996307,7.40766909 32.4637451,7.13021847 C32.7310485,6.84986879 33.0989533,6.68925474 33.4996185,6.67736816 C33.903183,6.66577148 34.283844,6.80580141 34.5711517,7.07194517 C34.849472,7.32968136 35.0106659,7.68106083 35.0263214,8.06317139 L35.0280609,16.104599 C35.0280609,16.9241943 35.6928405,17.5886841 36.5124359,17.5886841 C37.332611,17.5886841 37.996811,16.9239044 37.996811,16.1040192 L37.9953613,8.03736879 C37.9953613,8.0231628 37.9950714,8.00866699 37.9944916,7.99417118 C37.9597015,6.8026123 37.4604645,5.70150753 36.588974,4.89408873 C35.7270508,4.09565737 34.5989837,3.67498779 33.4129333,3.70977783 C32.2254333,3.74456787 31.1251984,4.23162842 30.3148804,5.08166504 C29.5045624,5.93170166 29.0749054,7.04933168 29.1033172,8.23103334 L29.0980988,18.2120056 C27.4745636,17.6452179 25.5944519,18.0490723 24.3512878,19.3925476 L19.0513153,25.1627655 L13.6600189,19.3884888 C12.4185944,18.0467529 10.5367432,17.6440582 8.91233824,18.2137451 L8.90711977,8.23103334 C8.9355316,7.04324345 8.48413086,5.91836552 7.63467411,5.06108091 C6.80551144,4.22438051 5.6980286,3.74427797 4.51603697,3.70977783 C3.3236084,3.67469789 2.20307924,4.10174561 1.35855106,4.91148375 C0.522720355,5.71281431 0.0431976133,6.80783077 0.00840757422,7.99417118 C0.00782777734,8.00866699 0.00782777734,8.0231628 0.00782777734,8.03765869 L0.00550842656,20.5672913 C-0.116256695,26.1577606 1.86358643,31.4484558 5.58148193,35.4658356 C5.58351137,35.4681549 5.58554073,35.4701843 5.58757017,35.4725036 L7.516098,37.5306244 C7.80833433,37.8425751 8.20349121,38.0005798 8.59951786,38.0005798 C8.96336363,38.0005798 9.32807924,37.8672181 9.61422726,37.5990448 C10.2126159,37.0386353 10.2430573,36.0990143 9.68264774,35.5009155 L7.75730894,33.4459839 C4.56387333,29.9936523 2.86524965,25.4381867 2.97396847,20.6171569 C2.97425844,20.6061401 2.97454834,20.5951233 2.97454834,20.5841064 L2.97657778,8.06317139 C2.99252316,7.66743471 3.14704897,7.30967711 3.41319273,7.05484013 C3.60105894,6.87451172 3.92953487,6.66200258 4.42906187,6.67765806 C4.8398743,6.68954464 5.23966978,6.86204527 5.52581787,7.15109249 C5.80326841,7.43086245 5.94996645,7.79238895 5.93894957,8.16841127 C5.93836977,8.18319698 5.9380798,8.19798277 5.9380798,8.21276855 L5.94561768,22.2093811 C5.9375,22.3821716 5.95083622,22.7072659 5.95228579,22.7280426 C5.95373535,22.7488193 5.95373535,22.7532653 5.95518492,22.7657318 C6.03056334,23.7294159 6.41702274,24.675415 7.12297056,25.4381867 C7.1255798,25.4407959 7.12789913,25.4434051 7.13021847,25.4460144 L12.2037659,30.8518066 C12.7650452,31.4496155 13.7043763,31.479187 14.3021851,30.9181976 C14.8999939,30.3572083 14.9298553,29.4175873 14.368576,28.8197785 L9.29937744,23.4189148 C9.06831362,23.1678467 8.94161984,22.8576355 8.91465757,22.5413361 L8.91465757,22.2908478 C8.94393917,21.9336701 9.10020445,21.5860596 9.38316343,21.3239746 C9.98416141,20.7682038 10.9252319,20.8044434 11.4853516,21.4100799 L19.0721893,29.5358734 C19.6931915,30.2073211 20.0158691,31.0799713 19.9807892,31.9937897 C19.9454193,32.9073181 19.5563507,33.7527161 18.884903,34.3740082 L17.7478485,35.4264069 C17.1459808,35.9833374 17.1097412,36.9223786 17.6666717,37.5242462 C17.959198,37.8402557 18.357254,38.0005798 18.7564697,38.0005798 C19.1171265,38.0005798 19.4789429,37.8698273 19.7645111,37.605423 L20.9018555,36.5527344 C23.4887848,34.1588898 23.64534,30.10643 21.2468567,27.514862 L21.0833435,27.3397522 L26.5340729,21.4054413 C27.0901336,20.8047333 28.0312042,20.7682038 28.6319122,21.3242645 C28.8922577,21.5648956 29.0537415,21.8838043 29.0960693,22.2317047 L29.0957794,22.5926514 C29.05896,22.901123 28.9282074,23.1893005 28.713089,23.421814 C28.7070007,23.428772 28.7006226,23.4354401 28.6945343,23.4423981 L25.4639893,27.0666504 C24.9186554,27.6786652 24.9725799,28.6171265 25.5845947,29.1627503 C25.8675537,29.414978 26.2203827,29.5387726 26.5717621,29.5387726 C26.9802552,29.5387726 27.3872985,29.3712005 27.6804046,29.0421448 L30.9022522,25.4271698 C31.7546081,24.5000153 32.1372985,23.3052673 32.0648193,22.1369019 L32.0723571,8.21247866 Z" id="Shape" fill="#000000" fill-rule="nonzero"></path>
                        <path d="M20.226472,0.283641097 L24.4539495,2.36651844 C25.4074059,2.83620803 26,3.78776949 26,4.84978246 L26,10.1159915 C26,11.1777337 25.4076767,12.1292951 24.4542202,12.5992555 L20.2267427,14.6824035 C19.8425989,14.871633 19.4213671,14.966383 18.9998646,14.966383 C18.5783622,14.966383 18.1571304,14.871633 17.7729865,14.6824035 L13.5457797,12.5992555 C12.5923233,12.1295659 12,11.1780044 12,10.1162622 L12,4.84978246 C12,3.78776949 12.5923233,2.83620803 13.5457797,2.36651844 L17.7732572,0.283641097 C18.5412743,-0.0945470322 19.458455,-0.0945470322 20.226472,0.283641097 Z M14.7721164,6.27265783 L14.7721164,10.1162622 L17.6138064,11.5145026 L17.6138064,7.63083242 L14.7721164,6.27265783 Z M23.2278836,6.27455278 L20.3861936,7.63110312 L20.3861936,11.5123369 L23.2286957,10.1127429 L23.2278836,6.27455278 Z M19.0014889,2.77069516 L16.4757227,4.0140868 L19.0001354,5.22066128 L21.528338,4.01381611 L19.0014889,2.77069516 Z" id="Combined-Shape" fill="#93B911"></path>
                    </g>
                </g>
            </g>
        </g>
    </g>
</svg>