<?xml version="1.0" encoding="UTF-8"?>
<svg width="25px" height="24px" viewBox="0 0 25 24" version="1.1" xmlns="http://www.w3.org/2000/svg" xmlns:xlink="http://www.w3.org/1999/xlink">
    <!-- Generator: Sketch 58 (84663) - https://sketch.com -->
    <title>Combined Shape</title>
    <desc>Created with Sketch.</desc>
    <g id="Symbols" stroke="none" stroke-width="1" fill="none" fill-rule="evenodd">
        <g id="icons-/-laurel" transform="translate(-10.000000, -10.000000)" fill="#FFFFFF" fill-rule="nonzero">
            <path d="M26.6166565,33.0125088 C26.6316265,33.0466405 25.9442034,33.2217897 25.2519898,33.2056221 C24.5504948,33.1777778 23.9058859,32.9131079 23.9013948,32.0316733 C26.2103703,31.380777 26.6166565,33.0128082 26.6166565,33.0125088 Z M18.3831472,33.0128082 C18.3831472,33.0128082 18.7903317,31.380777 21.0996065,32.0319727 C21.0951155,32.9134073 20.4481113,33.1780772 19.7502091,33.2059215 C19.0556004,33.2217897 18.3681772,33.0466405 18.3831472,33.0128082 Z M18.3738658,31.2661067 C18.1472197,32.1110144 17.4328505,32.2283794 16.7358465,32.1110144 C16.0307587,32.0187991 15.513395,31.4945491 15.5011195,31.5259862 C15.5011195,31.5259862 15.7038136,31.1379633 16.1612973,30.9514369 C16.6002182,30.7891619 17.2735695,30.7433537 18.3738658,31.2661067 Z M28.8385064,30.9514369 C29.2947925,31.1379633 29.499283,31.5259862 29.499283,31.5259862 C29.4846124,31.4942497 28.9687456,32.0187991 28.2648554,32.1110144 C27.567552,32.2283794 26.857075,32.1110144 26.6235427,31.2661067 C27.7250366,30.7433537 28.3968909,30.7891619 28.8385064,30.9514369 Z M19.9837414,11.1458051 C19.9837414,11.1458051 19.6735627,11.5889176 19.1759593,11.919755 C18.7002122,12.1865207 18.1427287,12.4712504 17.2861444,12.4251427 C17.1418334,12.5014898 16.9699776,12.5955015 16.7663854,12.7074773 C16.5451285,12.8820277 16.2768658,13.0889133 15.9879445,13.3248408 C17.6574008,12.0377187 18.3220695,13.7260372 18.2900337,13.6631631 L18.2805888,13.6691343 C18.218331,13.7078134 17.8554133,13.922961 17.4044075,13.9760365 C16.9475226,14.1008864 16.3556081,14.1008864 15.8846514,13.4059783 C15.4337545,13.7847197 14.9433367,14.2320238 14.4774698,14.8353155 L14.326,15.028 L14.4534859,14.8969146 C15.6596561,13.7219467 16.5265657,14.913459 16.5265657,14.913459 C16.4597994,14.8610639 15.4181856,16.3377064 14.1319618,15.2835178 C13.7086097,15.8416 13.3400479,16.5023766 13.0433422,17.2332128 C13.8666931,15.5637565 15.1765696,16.6077655 15.1220787,16.5706398 C15.1220787,16.5706398 14.9095045,16.9853093 14.5092062,17.2895 C14.1711832,17.6089602 13.6628015,17.9080611 12.9157976,17.5430921 C12.725379,18.0655457 12.5789722,18.6185382 12.4681941,19.1900934 C13.0104081,17.9972825 14.1654946,18.5215324 14.1654946,18.5215324 C14.0619021,18.5008738 13.9139983,20.2454796 12.3316676,20.0347018 C12.2657995,20.6143408 12.2577157,21.2101475 12.2939431,21.812541 C12.4436433,20.4302096 13.8163938,20.6529635 13.7631006,20.6529635 C13.7631006,20.6529635 13.794837,21.1176328 13.6053166,21.5787093 C13.4184908,22.0326002 13.1861561,22.5227186 12.3463382,22.5921795 C12.400829,22.9921783 12.4714875,23.3894826 12.5774752,23.787685 C12.6241817,23.970918 12.7017264,24.140678 12.7601094,24.3176236 C12.6651995,23.7499606 12.8717858,23.3685245 13.1496293,23.1535551 C13.5104067,22.8556517 13.931663,22.8152327 13.931663,22.8152327 C13.8313638,22.8583464 14.5529187,24.5104374 13.0169949,25.0661244 C13.2628026,25.6385779 13.571185,26.1691153 13.9077109,26.6688145 C13.3160959,25.3307943 14.5954335,24.8798974 14.5912419,24.8798974 C14.5532181,24.9143285 15.6487239,26.3101329 14.3202846,27.2703097 C14.628667,27.6718056 14.9648935,28.0346788 15.3133955,28.3733006 C14.8157922,27.4188123 15.743035,26.7523472 15.707107,26.7801914 C15.707107,26.7801914 16.058603,27.0867773 16.2484228,27.5538419 C16.413093,28.005637 16.5840506,28.4861745 16.1074052,29.090065 C16.6160864,29.4960519 17.1469232,29.8511407 17.6684786,30.1301818 C17.1732704,29.7873684 17.0463247,29.3607229 17.0936299,29.0002449 C17.1409352,28.5334798 17.4133895,28.2122232 17.4133895,28.2122232 C17.3684795,28.3077319 19.0433249,28.9753947 18.3520096,30.4451509 C18.4636859,30.4891628 18.5792544,30.5559291 18.6954218,30.5993421 C19.1909293,30.8750898 19.7124847,30.9223951 20.1693696,31.0355684 C18.8166789,30.4792826 19.4050006,29.2888668 19.4050006,29.294256 C19.4050006,29.294256 21.1648757,29.5694049 20.890625,31.1843704 C21.1966122,31.2358672 21.4843359,31.2607175 21.7340358,31.2556277 C21.8226583,31.2588213 21.8983733,31.2598858 21.9715601,31.2617487 L22.0807414,31.2655079 L22.0807414,31.2849689 L22.1109082,31.2843213 C22.2208182,31.2819288 22.6271931,31.2728086 23.2663667,31.2553283 C23.5172642,31.2604181 23.8046885,31.2355678 24.1082805,31.184071 C23.833431,29.5694049 25.5945038,29.2939566 25.5945038,29.2939566 C25.5945038,29.2885674 26.1822266,30.4789832 24.8319311,31.035269 C25.2900136,30.9220957 25.8121678,30.8747904 26.3049808,30.5990427 C26.4190523,30.5556297 26.5361178,30.488564 26.6486924,30.4448515 C25.9576764,28.9750953 27.6343183,28.3074325 27.5879112,28.2119238 C27.5879112,28.2119238 27.8624613,28.5331804 27.9031798,28.9999455 C27.9558742,29.3604235 27.8289285,29.7867696 27.3319239,30.1298824 C27.8543775,29.8508413 28.3837173,29.4954531 28.8900033,29.0897656 C28.4172502,28.4858751 28.5885071,28.0053376 28.7522791,27.5535425 C28.9420989,27.0864779 29.2938943,26.779892 29.2938943,26.779892 C29.2573675,26.7520478 30.1846104,27.4185129 29.6879052,28.3730012 C30.0328144,28.0343794 30.3717356,27.6715062 30.6804173,27.2700103 C29.3525768,26.3098335 30.4459869,24.9140291 30.4082624,24.879598 C30.4025738,24.879598 31.6846061,25.3304949 31.0956856,26.6685151 C31.4331098,26.1688159 31.7375999,25.6379791 31.980713,25.065825 C30.4459869,24.5098386 31.1699369,22.858047 31.0699372,22.8149333 C31.0699372,22.8149333 31.4932892,22.8553523 31.8504738,23.1532557 C32.1298144,23.3682251 32.3358018,23.7496612 32.2432871,24.3173242 C32.2995743,24.1403786 32.3735262,23.9703192 32.4235261,23.7873856 C32.5265198,23.3891832 32.6007711,22.9918789 32.6528667,22.59188 C31.8148452,22.5221198 31.5816123,22.0323008 31.3968823,21.5784099 C31.2058649,21.1173334 31.2352061,20.6526641 31.2352061,20.6526641 C31.1887991,20.6526641 32.5567592,20.4302096 32.7088546,21.8122416 C32.7432857,21.2101475 32.7366988,20.6143408 32.6714296,20.0344024 C31.0873024,20.2451802 30.9376022,18.5005744 30.8349079,18.521233 C30.8349079,18.521233 31.9890962,17.996983 32.5310108,19.189794 C32.4193345,18.6182388 32.2774187,18.0652463 32.0858025,17.5427927 C31.3373017,17.9077617 30.8292193,17.6086608 30.4953879,17.2892006 C30.1273977,17.0126636 29.9172731,16.6448218 29.8821098,16.5802269 L29.8768268,16.5703404 C29.8282042,16.6062286 31.0494711,15.6318564 31.8722388,17.0748721 L31.951,17.224 L31.8027252,16.8730226 C31.537297,16.2836749 31.2218563,15.7478551 30.8711353,15.2832184 C29.5822169,16.337407 28.5400043,14.8607645 28.4759326,14.9131596 C28.4759326,14.9131596 29.3434004,13.7216473 30.5477228,14.8966152 L30.675,15.028 L30.5994176,14.9308908 C30.5746135,14.8967679 30.5503623,14.8634711 30.5241303,14.8350161 C30.057964,14.2320238 29.5675463,13.7847197 29.1163499,13.4056789 C28.6486866,14.100587 28.0552751,14.100587 27.595995,13.9757371 C27.0992899,13.917354 26.7079736,13.6628637 26.7079736,13.6628637 C26.7724245,13.5138901 27.4539795,12.1235069 29.0118592,13.3245414 C28.7256325,13.0886139 28.4555734,12.8817283 28.2334183,12.7071779 C28.0298261,12.5952021 27.8624613,12.500891 27.7145576,12.4248433 C26.8597696,12.470951 26.298394,12.1865207 25.8232456,11.9194556 C25.3301333,11.5886182 25.0190563,11.1455057 25.0190563,11.1455057 C25.0190563,11.1455057 25.4771388,10.9619733 26.1433046,11.0080809 C26.7409077,11.0080809 27.4450973,11.3934092 27.8567727,12.1577782 C28.0130597,12.2407121 28.1855143,12.3392148 28.4031783,12.4565798 C29.0118592,12.9368179 29.9322159,13.5766364 30.7561656,14.6386094 C32.5450826,16.6356097 33.6292113,20.384102 32.7175372,23.8664273 C31.8097554,27.3721059 28.9025781,29.9759906 26.4151601,30.8753892 C25.8289342,31.2086218 25.1876187,31.2149092 24.6699555,31.3765854 C24.1486995,31.5334712 23.6777428,31.5708962 23.2852289,31.5628124 C22.5082851,31.5783812 22.0645738,31.5903572 22.0645738,31.5903572 C22.0220589,31.5903572 21.9852327,31.5798782 21.9531968,31.5649082 C21.8786462,31.5649082 21.8011015,31.5643094 21.7136766,31.5628124 C21.3241567,31.5708962 20.8523018,31.5334712 20.3301476,31.3765854 C19.8130832,31.2152086 19.1756599,31.2089212 18.5843442,30.8756886 C16.0969262,29.97629 13.1891501,27.3724053 12.2855599,23.8667267 C11.3705925,20.3844014 12.4559187,16.6356097 14.2439375,14.6389088 C15.0690848,13.5769358 15.9876451,12.9371173 16.5984218,12.4568792 C16.8148882,12.3395142 16.9873428,12.2407121 17.1457256,12.1580776 C17.5550059,11.3937086 18.2600937,11.0083803 18.8609901,11.0083803 C19.5217667,10.9622727 19.9837414,11.1458051 19.9837414,11.1458051 Z M15.9169866,29.8646137 C15.5038141,30.5996415 14.6954332,30.634372 14.1211834,30.2667083 C13.5307659,29.9235955 13.070887,29.3834773 13.070887,29.3834773 C13.0996294,29.3340763 14.1798658,28.2331812 15.9169866,29.8646137 Z M31.9283179,29.3834773 C31.9283179,29.3834773 31.4687384,29.9235955 30.8774227,30.2667083 C30.3019753,30.634372 29.4968878,30.5996415 29.0843141,29.8646137 C30.8199379,28.2331812 31.8977791,29.3340763 31.9283179,29.3834773 Z M27.226,30.19 C27.1961537,30.2042962 27.1592284,30.2200159 27.1292299,30.2355707 L27.17,30.216 L27.1965201,30.2043582 L27.226,30.19 Z M13.8729805,27.9122241 C12.6586127,29.1924599 11.1753834,26.7310897 11.2529281,26.6969581 L11.2681273,26.6883648 C11.4233273,26.6039202 12.7381171,25.9662217 13.8729805,27.9122241 Z M33.7489714,26.6969581 C33.8259173,26.7313891 32.3414904,29.1924599 31.1292184,27.9122241 C32.3358018,25.8406731 33.7489714,26.6969581 33.7489714,26.6969581 Z M11.1170004,23.6667273 C11.5430471,23.8685231 12.0430456,24.3065458 12.4663977,25.4499557 C11.7137053,25.889176 11.1170004,25.4777999 10.7050255,24.9065441 C10.273889,24.3382822 10.273889,23.608943 10.2457454,23.6167274 C10.2457454,23.6167274 10.6607143,23.4861889 11.1170004,23.6667273 Z M34.7573517,23.6167274 C34.7286093,23.608943 34.7253159,24.3385816 34.2959758,24.9065441 C33.8851985,25.4777999 33.2869967,25.889176 32.5340048,25.4499557 C32.9582551,24.3065458 33.4579543,23.8685231 33.8851985,23.6667273 C34.3384907,23.4861889 34.7573517,23.6167274 34.7573517,23.6167274 Z M34.9935786,20.3873954 C34.9935786,20.3873954 35.0435785,21.0969742 34.8645371,21.7550561 C34.6860944,22.4185273 34.1088506,22.9589449 33.2962781,22.7284066 C33.4130442,20.3475751 34.9307045,20.3733235 34.9935786,20.3873954 Z M11.7077172,22.7284066 C10.8891567,22.9589449 10.3155057,22.4185273 10.1352667,21.7550561 C9.95532706,21.0969742 10.0068239,20.3873954 10.0068239,20.3873954 C10.0673028,20.3733235 11.5903523,20.3475751 11.7077172,22.7284066 Z M10.6140078,17.2059674 C10.6140078,17.1951889 12.1825662,17.5703376 11.6193941,19.9011692 C9.86550696,19.9619475 10.4783795,17.1559675 10.6140078,17.2059674 Z M34.3866941,17.2059674 C34.5226219,17.1559675 35.1357938,19.9619475 33.3828048,19.9011692 C32.8184351,17.5703376 34.3866941,17.1951889 34.3866941,17.2059674 Z M32.9651413,14.2871135 C32.9651413,14.2871135 33.3663378,14.8718423 33.548972,15.5305231 C33.6681333,16.2221378 33.5025649,16.9517765 32.6615494,17.1592609 C31.5873009,15.0323209 32.8962792,14.3146583 32.9651413,14.2871135 Z M12.0370576,14.2868141 C12.1044227,14.3146583 13.4107064,15.0320215 12.3373562,17.1589615 C11.4984364,16.9517765 11.3307722,16.2221378 11.45173,15.5302237 C11.6343642,14.8715429 12.0370576,14.2868141 12.0370576,14.2868141 Z M14.1232798,11.8231232 L14.1349558,11.8263421 C14.1367522,11.8263421 15.3262697,12.9266383 13.6741787,14.6622621 C12.2043696,13.8972062 13.8394062,11.9707836 14.1027469,11.8309121 L14.1232798,11.8231232 Z M31.327122,14.6619627 C29.6762286,12.9263389 30.8636503,11.8260427 30.8648479,11.8260427 C30.9450872,11.7254442 32.8858002,13.8493902 31.327122,14.6619627 Z M28.1813227,10 C28.1813227,10 28.8214406,10.3089811 29.3049722,10.7892193 C29.7534739,11.3320321 29.9672457,12.0455031 29.340002,12.6428068 C27.3540796,11.3257447 28.1304246,10.0628741 28.1813227,10 Z M16.8208762,10 C16.8684809,10.0628741 17.644826,11.3257447 15.6604005,12.6428068 C15.0337556,12.0455031 15.2484257,11.3320321 15.6969274,10.7892193 C16.1774649,10.3092806 16.8208762,10 16.8208762,10 Z" id="Combined-Shape"></path>
        </g>
    </g>
</svg>