<svg width="18" height="16" viewBox="0 0 18 16" xmlns="http://www.w3.org/2000/svg"><path d="M18 .75v4a.723.723 0 01-.219.531.723.723 0 01-.531.219.723.723 0 01-.531-.219l-1.125-1.125L8 11.781a.723.723 0 01-.531.219.723.723 0 01-.532-.219l-.718-.719a.723.723 0 01-.219-.53c0-.21.073-.386.219-.532l7.625-7.594-1.125-1.125A.723.723 0 0112.5.75c0-.208.073-.385.219-.531A.723.723 0 0113.25 0h4c.208 0 .385.073.531.219A.723.723 0 0118 .75zm-5.281 7.719a.635.635 0 01.531-.235c.208.01.385.084.531.22A.71.71 0 0114 9v5.5c0 .417-.146.77-.438 1.063A1.447 1.447 0 0112.5 16h-11c-.417 0-.77-.146-1.063-.438A1.447 1.447 0 010 14.5v-11c0-.417.146-.77.438-1.063A1.447 1.447 0 011.5 2h9.25c.208 0 .385.073.531.219a.723.723 0 01.219.531.723.723 0 01-.219.531l-.5.5A.723.723 0 0110.25 4H2v10h10V9.5c0-.208.073-.385.219-.531l.5-.5z" fill="#93B911" fill-rule="evenodd"/></svg>