<?xml version="1.0" encoding="UTF-8"?>
<svg width="38px" height="38px" viewBox="0 0 38 38" version="1.1" xmlns="http://www.w3.org/2000/svg" xmlns:xlink="http://www.w3.org/1999/xlink">
    <!-- Generator: Sketch 58 (84663) - https://sketch.com -->
    <title>timer</title>
    <desc>Created with Sketch.</desc>
    <g id="Page-1---desktop" stroke="none" stroke-width="1" fill="none" fill-rule="evenodd">
        <g id="iconix-case1.1" transform="translate(-881.000000, -4838.000000)">
            <g id="Group-13" transform="translate(850.000000, 4357.000000)">
                <g id="icons-/-timer" transform="translate(25.000000, 475.000000)">
                    <g id="timer" transform="translate(6.000000, 6.000000)">
                        <path d="M15.8511211,22.1488789 C16.719332,23.0169414 17.8597031,23.4510469 19,23.4510469 C20.1402969,23.4510469 21.2807422,23.0170156 22.1488789,22.1488789 C23.8851523,20.4125313 23.8851523,17.5874688 22.1488789,15.8511953 C20.9540313,14.6563477 9.56902344,6.79769531 7.29882031,5.2345 C6.70915234,4.828375 5.91360156,4.90118359 5.40735547,5.40742969 C4.90110938,5.91367578 4.828375,6.70922656 5.23442578,7.29889453 C6.79769531,9.56902344 14.6563477,20.9540312 15.8511211,22.1488789 Z M20.0498984,17.9506211 C20.6284336,18.5293789 20.6283594,19.470918 20.0496016,20.0496016 C19.4707695,20.6283594 18.529082,20.6282852 17.9506953,20.0498242 C17.4898711,19.5837305 15.1694219,16.3562539 12.3796133,12.3795391 C16.3562539,15.1694219 19.5836563,17.4897969 20.0498984,17.9506211 Z" id="Shape" fill="#000000" fill-rule="nonzero"></path>
                        <path d="M32.4350781,5.56492187 C28.8463789,1.97629687 24.5839893,0 19.5089111,0 C18.6890908,0 18.0245361,0.664554687 18.0245361,1.484375 L18.0245361,7.421875 C18.0245361,8.24169531 18.6890908,8.90625 19.5089111,8.90625 C20.3287314,8.90625 20.9932861,8.24169531 20.9932861,7.421875 L20.9932861,3.03688281 C29.1401299,3.78790234 35.03125,10.6604844 35.03125,19 C35.03125,22.1609023 34.0912695,25.2376406 32.3127656,27.8977148 C31.8572109,28.5791914 32.0403086,29.5010625 32.7217852,29.9566914 C32.9752422,30.1261328 33.2619492,30.2071797 33.5454648,30.2071797 C34.0245469,30.2071797 34.4947227,29.9757656 34.7809102,29.5476719 C36.8868672,26.3976797 38,22.7503477 38,19 C38,13.9249219 36.0236289,9.15362109 32.4350781,5.56492187 Z" id="Path" fill="#93B911" fill-rule="nonzero"></path>
                        <path d="M27.2929805,32.7226016 C24.7996758,34.2329531 21.9320117,35.03125 19,35.03125 C10.1603242,35.03125 2.96875,27.8396758 2.96875,19 C2.96875,16.5465508 3.50794922,14.1928516 4.57135547,12.0041406 C4.92960938,11.2667773 4.62226953,10.3786016 3.88490625,10.0203477 C3.14746875,9.66209375 2.25936719,9.96950781 1.90111328,10.7067969 C0.639617187,13.3031172 0,16.0933711 0,19 C0,24.0750781 1.97637109,28.8463789 5.56492187,32.4350781 C9.15362109,36.0237031 13.9249219,38 19,38 C22.4743281,38 25.8738437,37.0531914 28.8311641,35.2618477 C29.5323086,34.8370937 29.7564492,33.9243516 29.3316953,33.223207 C28.9068672,32.5219141 27.9942734,32.2978477 27.2929805,32.7226016 Z" id="Path" fill="#000000" fill-rule="nonzero"></path>
                    </g>
                </g>
            </g>
        </g>
    </g>
</svg>