<?xml version="1.0" encoding="UTF-8"?>
<svg width="95px" height="20px" viewBox="0 0 95 20" version="1.1" xmlns="http://www.w3.org/2000/svg" xmlns:xlink="http://www.w3.org/1999/xlink">
    <!-- Generator: Sketch 58 (84663) - https://sketch.com -->
    <title>ICONIX-logo</title>
    <desc>Created with Sketch.</desc>
    <g id="Page-1---desktop" stroke="none" stroke-width="1" fill="none" fill-rule="evenodd">
        <g id="iconix-main1" transform="translate(-130.000000, -87.000000)">
            <g id="Group-10" transform="translate(130.000000, 87.000000)">
                <g id="ICONIX-logo">
                    <g>
                        <path d="M4.76583333,19.21 L0,19.21 L0,0.311666667 L4.76583333,0.311666667 L4.76583333,19.21 Z M17.1514583,19.55 C11.47125,19.55 7.14875,15.5833333 7.14875,9.775 C7.14875,3.93833333 11.47125,7.10542736e-15 17.1514583,7.10542736e-15 C21.6125,7.10542736e-15 23.9954167,2.57833333 25.2145833,5.07166667 L21.11375,7.055 C20.5041667,5.55333333 18.9247917,4.30666667 17.1514583,4.30666667 C14.13125,4.30666667 11.9977083,6.68666667 11.9977083,9.775 C11.9977083,12.8633333 14.13125,15.2433333 17.1514583,15.2433333 C18.9247917,15.2433333 20.5041667,13.9966667 21.11375,12.495 L25.2145833,14.4783333 C24.023125,16.915 21.6125,19.55 17.1514583,19.55 Z M36.2147917,19.55 C30.5622917,19.55 26.3229167,15.5266667 26.3229167,9.775 C26.3229167,4.02333333 30.5622917,7.10542736e-15 36.2147917,7.10542736e-15 C41.8672917,7.10542736e-15 46.0789583,4.02333333 46.0789583,9.775 C46.0789583,15.5266667 41.8672917,19.55 36.2147917,19.55 Z M36.2147917,15.2433333 C39.2627083,15.2433333 41.23,12.835 41.23,9.775 C41.23,6.68666667 39.2627083,4.30666667 36.2147917,4.30666667 C33.1391667,4.30666667 31.171875,6.68666667 31.171875,9.775 C31.171875,12.835 33.1391667,15.2433333 36.2147917,15.2433333 Z M65.66875,19.21 L61.0691667,19.21 L53.2554167,8.27333333 L53.2554167,19.21 L48.4895833,19.21 L48.4895833,0.311666667 L53.3939583,0.311666667 L60.8752083,10.71 L60.8752083,0.311666667 L65.66875,0.311666667 L65.66875,19.21 Z M73.7595833,19.21 L68.99375,19.21 L68.99375,0.311666667 L73.7595833,0.311666667 L73.7595833,19.21 Z" id="ICONI" fill="#000000" fill-rule="nonzero"></path>
                        <polygon id="X" fill="#93B911" fill-rule="nonzero" points="94.43 19.21 88.8052083 19.21 75.5329167 0.311666667 81.1577083 0.311666667 84.7875 6.23333333 88.361875 0.311666667 94.014375 0.311666667 88.0016667 9.49166667"></polygon>
                        <polygon id="Mask-Copy" fill="#548601" fill-rule="nonzero" points="80.9779517 10.8034929 83.6315918 14.5 80.3806197 19 75 19"></polygon>
                    </g>
                </g>
            </g>
        </g>
    </g>
</svg>