<?xml version="1.0" encoding="UTF-8"?>
<svg width="38px" height="38px" viewBox="0 0 38 38" version="1.1" xmlns="http://www.w3.org/2000/svg" xmlns:xlink="http://www.w3.org/1999/xlink">
    <!-- Generator: Sketch 58 (84663) - https://sketch.com -->
    <title>time@2x</title>
    <desc>Created with Sketch.</desc>
    <g id="Page-1---desktop" stroke="none" stroke-width="1" fill="none" fill-rule="evenodd">
        <g id="iconix-vacancies1" transform="translate(-161.000000, -1408.000000)">
            <g id="Group-13" transform="translate(130.000000, 1311.000000)">
                <g id="Group-5" transform="translate(0.000000, 66.000000)">
                    <g id="icons-/-calendar" transform="translate(25.000000, 25.000000)">
                        <g id="time@2x">
                            <rect id="Rectangle-5-Copy-4" x="0" y="0" width="50" height="50"></rect>
                            <g id="calendar" transform="translate(6.000000, 6.000000)" fill-rule="nonzero">
                                <circle id="Oval" fill="#000000" cx="28.6484375" cy="15.5859375" r="1.484375"></circle>
                                <path d="M32.0625,2.96875 L30.1328125,2.96875 L30.1328125,1.484375 C30.1328125,0.664554688 29.4682578,0 28.6484375,0 C27.8286172,0 27.1640625,0.664554688 27.1640625,1.484375 L27.1640625,2.96875 L20.4101562,2.96875 L20.4101562,1.484375 C20.4101562,0.664554688 19.7456016,0 18.9257812,0 C18.1059609,0 17.4414062,0.664554688 17.4414062,1.484375 L17.4414062,2.96875 L10.7617188,2.96875 L10.7617188,1.484375 C10.7617188,0.664554688 10.0971641,0 9.27734375,0 C8.45752344,0 7.79296875,0.664554688 7.79296875,1.484375 L7.79296875,2.96875 L5.9375,2.96875 C2.6635625,2.96875 0,5.6323125 0,8.90625 L0,32.0625 C0,35.3364375 2.6635625,38 5.9375,38 L17.2929688,38 C18.1127891,38 18.7773438,37.3354453 18.7773438,36.515625 C18.7773438,35.6958047 18.1127891,35.03125 17.2929688,35.03125 L5.9375,35.03125 C4.30053125,35.03125 2.96875,33.6994688 2.96875,32.0625 L2.96875,8.90625 C2.96875,7.26928125 4.30053125,5.9375 5.9375,5.9375 L7.79296875,5.9375 L7.79296875,7.421875 C7.79296875,8.24169531 8.45752344,8.90625 9.27734375,8.90625 C10.0971641,8.90625 10.7617188,8.24169531 10.7617188,7.421875 L10.7617188,5.9375 L17.4414062,5.9375 L17.4414062,7.421875 C17.4414062,8.24169531 18.1059609,8.90625 18.9257812,8.90625 C19.7456016,8.90625 20.4101562,8.24169531 20.4101562,7.421875 L20.4101562,5.9375 L27.1640625,5.9375 L27.1640625,7.421875 C27.1640625,8.24169531 27.8286172,8.90625 28.6484375,8.90625 C29.4682578,8.90625 30.1328125,8.24169531 30.1328125,7.421875 L30.1328125,5.9375 L32.0625,5.9375 C33.6994688,5.9375 35.03125,7.26928125 35.03125,8.90625 L35.03125,17.3671875 C35.03125,18.1870078 35.6958047,18.8515625 36.515625,18.8515625 C37.3354453,18.8515625 38,18.1870078 38,17.3671875 L38,8.90625 C38,5.6323125 35.3364375,2.96875 32.0625,2.96875 Z" id="Path" fill="#000000"></path>
                                <path d="M29.0195312,20.0390625 C24.0676562,20.0390625 20.0390625,24.0676562 20.0390625,29.0195312 C20.0390625,33.9714063 24.0676562,38 29.0195312,38 C33.9714063,38 38,33.9714063 38,29.0195312 C38,24.0676562 33.9714063,20.0390625 29.0195312,20.0390625 Z M29.0195312,35.03125 C25.7046992,35.03125 23.0078125,32.3344375 23.0078125,29.0195312 C23.0078125,25.704625 25.7046992,23.0078125 29.0195312,23.0078125 C32.3343633,23.0078125 35.03125,25.704625 35.03125,29.0195312 C35.03125,32.3344375 32.3343633,35.03125 29.0195312,35.03125 Z" id="Shape" fill="#93B911"></path>
                                <path d="M31.5507246,27.037037 L30.8985507,27.037037 L30.8985507,25.4814815 C30.8985507,24.6632593 30.2497101,24 29.4492754,24 C28.6488406,24 28,24.6632593 28,25.4814815 L28,28.5185185 C28,29.3367407 28.6488406,30 29.4492754,30 L31.5507246,30 C32.3511594,30 33,29.3367407 33,28.5185185 C33,27.7002963 32.3511594,27.037037 31.5507246,27.037037 Z" id="Path" fill="#93B911"></path>
                                <circle id="Oval" fill="#000000" cx="22.1914062" cy="15.5859375" r="1.484375"></circle>
                                <circle id="Oval" fill="#000000" cx="15.734375" cy="22.0429688" r="1.484375"></circle>
                                <circle id="Oval" fill="#000000" cx="9.27734375" cy="15.5859375" r="1.484375"></circle>
                                <circle id="Oval" fill="#000000" cx="9.27734375" cy="22.0429688" r="1.484375"></circle>
                                <circle id="Oval" fill="#000000" cx="9.27734375" cy="28.5" r="1.484375"></circle>
                                <circle id="Oval" fill="#000000" cx="15.734375" cy="28.5" r="1.484375"></circle>
                                <circle id="Oval" fill="#000000" cx="15.734375" cy="15.5859375" r="1.484375"></circle>
                            </g>
                        </g>
                    </g>
                </g>
            </g>
        </g>
    </g>
</svg>