<?xml version="1.0" encoding="UTF-8"?>
<svg width="38px" height="38px" viewBox="0 0 38 38" version="1.1" xmlns="http://www.w3.org/2000/svg" xmlns:xlink="http://www.w3.org/1999/xlink">
    <!-- Generator: Sketch 58 (84663) - https://sketch.com -->
    <title>timer copy 3</title>
    <desc>Created with Sketch.</desc>
    <g id="Page-1---desktop" stroke="none" stroke-width="1" fill="none" fill-rule="evenodd">
        <g id="iconix-case1.1" transform="translate(-881.000000, -4538.000000)">
            <g id="Group-13" transform="translate(850.000000, 4357.000000)">
                <g id="icons-/-tools" transform="translate(25.000000, 175.000000)">
                    <g id="tools" transform="translate(6.000000, 6.000000)">
                        <path d="M38,18.2578125 L38,19.7421875 C38,22.1977845 36.002472,24.1953125 33.546875,24.1953125 L32.7991791,24.1953125 C32.6026154,24.1953125 32.4243164,24.3191071 32.3451691,24.5107422 L32.3358917,24.5336456 C32.0239411,25.2917786 31.1565094,25.653595 30.3983765,25.3413544 C29.6402435,25.0294037 29.2784271,24.161972 29.5903778,23.4038391 L29.6005249,23.379486 C30.1409302,22.0710907 31.3959808,21.2265625 32.7991791,21.2265625 L33.546875,21.2265625 C34.3653107,21.2265625 35.03125,20.5606232 35.03125,19.7421875 L35.03125,18.2578125 C35.03125,17.4393768 34.3653107,16.7734375 33.546875,16.7734375 L32.7991791,16.7734375 C31.3959808,16.7734375 30.1409302,15.9289093 29.6011048,14.6222534 L29.5921173,14.6005096 C29.0496826,13.2941437 29.3398895,11.8088989 30.3319855,10.816803 L30.8607941,10.2882843 C31.4394684,9.70961 31.4394684,8.76795961 30.8607941,8.1889954 L29.8110046,7.13949581 C29.5306549,6.85914614 29.1578216,6.7046204 28.7615052,6.7046204 C28.3648987,6.7046204 27.9920654,6.85914614 27.7120056,7.13949581 L27.183197,7.66801451 C26.1911011,8.66011049 24.7058563,8.95060728 23.3994904,8.40788267 L23.3774567,8.39860533 C22.0710907,7.85906982 21.2265625,6.60401918 21.2265625,5.20082094 L21.2265625,4.453125 C21.2265625,3.63468931 20.5606232,2.96875 19.7421875,2.96875 L18.2578125,2.96875 C17.4393768,2.96875 16.7734375,3.63468931 16.7734375,4.453125 L16.7734375,5.20082094 C16.7734375,6.60401918 15.9289093,7.85906982 14.6222534,8.39860533 L14.6034088,8.40643311 C13.2938538,8.95031738 11.8088989,8.66011049 10.816803,7.66801451 L10.2879944,7.13920591 C10.0079346,6.85885616 9.63510128,6.7046204 9.23849484,6.7046204 C8.84217836,6.7046204 8.46934507,6.85885616 8.1889954,7.13920591 L7.13920591,8.1889954 C6.5605316,8.76766964 6.5605316,9.70932003 7.13920591,10.2882843 L7.66801451,10.816803 C8.66011049,11.8088989 8.95031738,13.2941437 8.40759277,14.6007995 L8.39860533,14.6228333 C7.85906982,15.9289093 6.60401918,16.7734375 5.20082094,16.7734375 L4.453125,16.7734375 C3.63468931,16.7734375 2.96875,17.4393768 2.96875,18.2578125 L2.96875,19.7421875 C2.96875,20.5606232 3.63468931,21.2265625 4.453125,21.2265625 L5.20082094,21.2265625 C6.60372921,21.2265625 7.85906982,22.0710907 8.39860533,23.3777466 L8.40962221,23.4038391 C8.95031738,24.7058563 8.66011049,26.1911011 7.66801451,27.183197 L7.13920591,27.7117157 C6.85885616,27.9920654 6.7046204,28.3648987 6.7046204,28.7615052 C6.7046204,29.1578216 6.85885616,29.5306549 7.13920591,29.8110046 L8.1889954,30.8607941 C8.76766964,31.4394684 9.70932003,31.4397583 10.2882843,30.8607941 L10.816803,30.3319855 C11.8083191,29.3407593 13.2924042,29.0499725 14.5984802,29.5915375 L14.6176147,29.5993652 C15.9291992,30.1409302 16.7734375,31.3962708 16.7734375,32.7991791 L16.7734375,33.546875 C16.7734375,34.3653107 17.4393768,35.03125 18.2578125,35.03125 L19.7421875,35.03125 C20.5606232,35.03125 21.2265625,34.3653107 21.2265625,33.546875 L21.2265625,32.7991791 C21.2265625,31.3962708 22.0708008,30.1409302 23.3774567,29.6013947 L23.4015198,29.5912476 C24.7075958,29.0499725 26.1916809,29.3404694 27.183197,30.3319855 L27.7117157,30.8605042 C28.29068,31.4394684 29.2323304,31.4394684 29.8110046,30.8605042 L30.8605042,29.8110046 C31.4403382,29.2311706 32.380249,29.2311706 32.9597931,29.8110046 C33.5396271,30.3905487 33.5396271,31.3304596 32.9597931,31.9100036 L31.9102936,32.9597931 C30.1739808,34.696106 27.3487396,34.696106 25.6127167,32.9597931 L25.0839081,32.4312744 C24.9450378,32.2921143 24.7307892,32.2538452 24.5379944,32.3338623 L24.5061035,32.3471985 C24.3191071,32.4243164 24.1953125,32.6026154 24.1953125,32.7991791 L24.1953125,33.546875 C24.1953125,36.002472 22.1977845,38 19.7421875,38 L18.2578125,38 C15.8022155,38 13.8046875,36.002472 13.8046875,33.546875 L13.8046875,32.7991791 C13.8046875,32.6026154 13.6808929,32.4243164 13.4889679,32.3451691 L13.4620056,32.3338623 C13.2692108,32.2538452 13.0549622,32.2921143 12.9160919,32.4312744 L12.3872833,32.960083 C10.6512604,34.696106 7.82601925,34.696106 6.0897064,32.960083 L5.03991699,31.9102936 C4.19886782,31.0692444 3.7358704,29.9510345 3.7358704,28.7615052 C3.7358704,27.5719757 4.19886782,26.4537659 5.04020689,25.6127167 L5.56872559,25.0839081 C5.70759584,24.9450378 5.74586489,24.7307892 5.6661377,24.5382843 L5.65396122,24.5092926 C5.57568359,24.3191071 5.39738463,24.1953125 5.20082094,24.1953125 L4.453125,24.1953125 C1.99752804,24.1953125 1.13686838e-13,22.1977845 1.13686838e-13,19.7421875 L1.13686838e-13,18.2578125 C1.13686838e-13,15.8022155 1.99752804,13.8046875 4.453125,13.8046875 L5.20082094,13.8046875 C5.39738463,13.8046875 5.57568359,13.6808929 5.65483091,13.4892578 L5.6658478,13.4622956 C5.74615479,13.2695007 5.70788574,13.0552521 5.56872559,12.9160919 L5.04020689,12.3875732 C3.30389404,10.6512604 3.30389404,7.82601925 5.04020689,6.0897064 L6.0897064,5.04020689 C6.93104555,4.19915771 8.04925537,3.7358704 9.23849484,3.7358704 C10.4280243,3.7358704 11.5462341,4.19915771 12.3875732,5.04020689 L12.9160919,5.56872559 C13.0552521,5.70788574 13.2695007,5.74615479 13.4620056,5.6661377 L13.488678,5.65483091 C13.6808929,5.57568359 13.8046875,5.39738462 13.8046875,5.20082094 L13.8046875,4.453125 C13.8046875,1.99752804 15.8025055,0 18.2578125,0 L19.7421875,0 C22.1977845,0 24.1953125,1.99752804 24.1953125,4.453125 L24.1953125,5.20082094 C24.1953125,5.39738462 24.3191071,5.57568359 24.5107422,5.65483091 L24.5408936,5.66729736 C24.7307892,5.74615479 24.9450378,5.70788574 25.0839081,5.56872559 L25.6127167,5.04020689 C26.4537659,4.19886782 27.5719757,3.7358704 28.7615052,3.7358704 C29.9507446,3.7358704 31.0692444,4.19886782 31.9102936,5.04020689 L32.9597931,6.0897064 C34.696106,7.82601925 34.696106,10.6512604 32.9597931,12.3872833 L32.4312744,12.9160919 C32.2921143,13.0549622 32.2538452,13.2692108 32.3338623,13.4620056 L32.3448792,13.488678 C32.4243164,13.680603 32.6026154,13.8046875 32.7991791,13.8046875 L33.546875,13.8046875 C36.002472,13.8046875 38,15.8022155 38,18.2578125 Z" id="Shape" fill="#000000" fill-rule="nonzero"></path>
                        <path d="M19,10.9101562 C21.5782318,10.9101562 23.6757813,13.0077057 23.6757813,15.5859375 C23.6757813,16.6148529 23.3409271,17.5663605 22.775589,18.3395691 C24.4640656,19.3594971 25.7257843,21.0500031 26.1470337,23.0785522 C26.2992401,23.8108825 26.1160126,24.5635071 25.6446076,25.1430511 C25.1752319,25.719986 24.4797211,26.0507812 23.736084,26.0507812 L14.263916,26.0507812 C13.5202789,26.0507812 12.8247681,25.719986 12.3553924,25.1430511 C11.8839874,24.5635071 11.7007599,23.8111725 11.8529663,23.0785522 C12.2742157,21.0500031 13.5359344,19.3594971 15.224411,18.3395691 C14.6590729,17.5663605 14.3242188,16.6148529 14.3242188,15.5859375 C14.3242188,13.0077057 16.4217682,10.9101562 19,10.9101562 Z M19.0388489,20.2617188 L18.9611511,20.2617188 C17.14888,20.2617188 15.54216,21.4164581 14.931015,23.0820312 L23.068985,23.0820312 C22.45784,21.4164581 20.85112,20.2617188 19.0388489,20.2617188 Z M19,13.8789062 C18.0586395,13.8789062 17.2929688,14.644577 17.2929688,15.5859375 C17.2929688,16.527298 18.0586395,17.2929688 19,17.2929688 C19.9413605,17.2929688 20.7070313,16.527298 20.7070313,15.5859375 C20.7070313,14.644577 19.9413605,13.8789062 19,13.8789062 Z" id="Combined-Shape" fill="#93B911" fill-rule="nonzero"></path>
                    </g>
                </g>
            </g>
        </g>
    </g>
</svg>