<?xml version="1.0" encoding="UTF-8"?>
<svg width="34px" height="38px" viewBox="0 0 34 38" version="1.1" xmlns="http://www.w3.org/2000/svg" xmlns:xlink="http://www.w3.org/1999/xlink">
    <!-- Generator: Sketch 58 (84663) - https://sketch.com -->
    <title>tuition</title>
    <desc>Created with Sketch.</desc>
    <g id="Page-1---desktop" stroke="none" stroke-width="1" fill="none" fill-rule="evenodd">
        <g id="iconix-vacancies1" transform="translate(-165.000000, -1709.000000)">
            <g id="Group-13" transform="translate(130.000000, 1311.000000)">
                <g id="Group-9" transform="translate(0.000000, 366.000000)">
                    <g id="icons-/-tuition" transform="translate(25.000000, 25.000000)">
                        <rect id="Rectangle-5-Copy-4" x="0" y="0" width="50" height="50"></rect>
                        <path d="M34,23.5 C34,22.67155 33.3448293,22 32.5365854,22 L17.4634146,22 C16.6551707,22 16,22.67155 16,23.5 C16,24.32845 16.6551707,25 17.4634146,25 L32.5365854,25 C33.3448293,25 34,24.32845 34,23.5 Z" id="Path" fill="#000000" fill-rule="nonzero"></path>
                        <path d="M17.4535676,28 C16.6507622,28 16,28.67155 16,29.5 C16,30.32845 16.6507622,31 17.4535676,31 L26.5464324,31 C27.3492378,31 28,30.32845 28,29.5 C28,28.67155 27.3492378,28 26.5464324,28 L17.4535676,28 Z" id="Path" fill="#000000" fill-rule="nonzero"></path>
                        <path d="M20.8568352,42.03125 L15.9129466,42.03125 C14.2827473,42.03125 12.9564733,40.6994688 12.9564733,39.0625 L12.9564733,12.9375 C12.9564733,11.3005313 14.2827473,9.96875 15.9129466,9.96875 L34.0870534,9.96875 C35.7172527,9.96875 37.0435267,11.3005313 37.0435267,12.9375 L37.0435267,22.0664062 C37.0435267,22.8862266 37.7053332,23.5507812 38.5217633,23.5507812 C39.3381934,23.5507812 40,22.8862266 40,22.0664062 L40,12.9375 C40,9.6635625 37.3474521,7 34.0870534,7 L15.9129466,7 C12.6525479,7 10,9.6635625 10,12.9375 L10,39.0625 C10,42.3364375 12.6525479,45 15.9129466,45 L20.8568352,45 C21.6732654,45 22.3350719,44.3354453 22.3350719,43.515625 C22.3350719,42.6958047 21.6732654,42.03125 20.8568352,42.03125 Z" id="Path" fill="#000000" fill-rule="nonzero"></path>
                        <path d="M42.694754,28.316223 C40.9545127,26.5614966 38.1229942,26.5614216 36.3838688,28.3150229 L28.2158039,36.5328489 C28.0423303,36.7073914 27.9143823,36.922363 27.8431182,37.1587868 L26.0642694,43.0637554 C25.9065661,43.587308 26.0439614,44.1557901 26.4228957,44.5474045 C26.7067617,44.840759 27.0923909,45 27.4879138,45 C27.6202507,45 27.7538522,44.9821482 27.8849989,44.9454695 L33.8899991,43.2682259 C34.1371172,43.199219 34.3623652,43.0669807 34.5438728,42.8842623 L42.6948284,34.6809127 C44.4350696,32.9261864 44.4350696,30.0710994 42.694754,28.316223 Z M32.71868,40.4821459 L29.69762,41.3259807 L30.5817256,38.3910107 L36.0930847,32.8460783 L38.1975314,34.9680416 L32.71868,40.4821459 Z M40.5918695,32.5584994 L40.3036146,32.8485536 L38.1995399,30.7269653 L38.4868277,30.4378862 C39.0669081,29.8529774 40.0107476,29.8529774 40.590828,30.4378862 C41.1709084,31.022795 41.1709084,31.9744907 40.5918695,32.5584994 Z" id="Shape" fill="#93B911" fill-rule="nonzero"></path>
                        <path d="M32.5365854,16 L17.4634146,16 C16.6551707,16 16,16.67155 16,17.5 C16,18.32845 16.6551707,19 17.4634146,19 L32.5365854,19 C33.3448293,19 34,18.32845 34,17.5 C34,16.67155 33.3448293,16 32.5365854,16 Z" id="Path" fill="#000000" fill-rule="nonzero"></path>
                    </g>
                </g>
            </g>
        </g>
    </g>
</svg>