<?xml version="1.0" encoding="UTF-8"?>
<svg width="22px" height="22px" viewBox="0 0 22 22" version="1.1" xmlns="http://www.w3.org/2000/svg" xmlns:xlink="http://www.w3.org/1999/xlink">
    <!-- Generator: Sketch 58 (84663) - https://sketch.com -->
    <title>Combined Shape</title>
    <desc>Created with Sketch.</desc>
    <g id="Symbols" stroke="none" stroke-width="1" fill="none" fill-rule="evenodd">
        <g id="icons-/-social" transform="translate(-38.000000, 0.000000)" fill="#D6D6D6" fill-rule="nonzero">
            <path d="M49,0 C55.0751322,0 60,4.92486775 60,11 C60,17.0751322 55.0751322,22 49,22 C42.9248678,22 38,17.0751322 38,11 C38,4.92486775 42.9248678,0 49,0 Z M46.6859195,7.69179466 C46.4571616,7.80366894 46.2810014,8.05329887 46.3887013,8.06749188 C46.5214476,8.08502442 46.8220054,8.1484755 46.981468,8.36554501 C47.187684,8.64523072 47.1801701,9.27473228 47.1801701,9.27473228 C47.1801701,9.27473228 47.2987234,11.0071139 46.9038239,11.2225136 C46.632487,11.3702879 46.2609642,11.0688952 45.4636512,9.69050387 C45.0553936,8.98502798 44.746487,8.20441265 44.746487,8.20441265 C44.746487,8.20441265 44.6872103,8.05914305 44.5811802,7.98149896 C44.4526082,7.88715722 44.2722736,7.85710144 44.2722736,7.85710144 L42.3637317,7.8687898 C42.3637317,7.8687898 42.0773669,7.87713862 41.9721717,8.00153615 C41.8786649,8.11257555 41.9646578,8.34133341 41.9646578,8.34133341 C41.9646578,8.34133341 43.4590978,11.8369873 45.1505702,13.5994247 C46.7026172,15.2149228 48.4642197,15.1088927 48.4642197,15.1088927 L49.2623675,15.1088927 C49.2623675,15.1088927 49.5036486,15.0821764 49.6263764,14.9494301 C49.7236999,14.8449505 49.7345363,14.6619578 49.7356462,14.6118064 L49.735746,14.5987793 C49.735746,14.5987793 49.7198833,13.5276248 50.2174734,13.369832 C50.7075495,13.2145438 51.3370511,14.4050865 52.0041224,14.8634371 C52.5083915,15.2099135 52.8916027,15.1339391 52.8916027,15.1339391 L54.675747,15.1088927 C54.675747,15.1088927 55.6091459,15.0512858 55.1666581,14.3174238 C55.1307581,14.2573123 54.9086793,13.7747501 53.8400294,12.7829094 C52.7212866,11.7443153 52.8715655,11.9129616 54.2190662,10.1171289 C55.0397559,9.02343258 55.3678648,8.35552642 55.2651742,8.06999653 C55.167493,7.79782477 54.5638728,7.86962468 54.5638728,7.86962468 L52.5568147,7.88131304 C52.5568147,7.88131304 52.4082056,7.86127585 52.2971662,7.92723159 C52.1894663,7.99235244 52.1201711,8.14263132 52.1201711,8.14263132 C52.1201711,8.14263132 51.8020807,8.98920239 51.3779603,9.70887129 C50.4838009,11.2275229 50.1256363,11.3076717 49.9795318,11.2133299 C49.6397345,10.9937558 49.7248926,10.330024 49.7248926,9.85915018 C49.7248926,8.38725196 49.9478062,7.77361317 49.2899187,7.61498545 L49.1477389,7.58264606 C48.98027,7.54824637 48.7867627,7.52602406 48.3523454,7.52147859 C47.636016,7.51396464 47.0290563,7.52398324 46.6859195,7.69179466 Z" id="Combined-Shape"></path>
        </g>
    </g>
</svg>